<svg viewBox="0 0 16 16" fill="none" xmlns="http://www.w3.org/2000/svg">
<path fill-rule="evenodd" clip-rule="evenodd" d="M8.00074 10.1288L11.9463 14.1684C12.3421 14.5768 12.5996 14.581 13.0026 14.1684L13.7943 13.3577C14.1821 12.9608 14.2084 12.7002 13.7943 12.2762L9.61713 8L13.7946 3.72381C14.1859 3.32191 14.1935 3.05067 13.7946 2.64191L13.003 1.83162C12.5924 1.41105 12.3386 1.43048 11.9466 1.83162L8.00074 5.87124L4.05522 1.832C3.66322 1.43086 3.40951 1.41143 2.99884 1.832L2.20722 2.64229C1.80798 3.05105 1.81522 3.32229 2.20722 3.72419L6.38436 8L2.20722 12.2762C1.79312 12.7002 1.81522 12.9608 2.20722 13.3577L2.99846 14.1684C3.39808 14.581 3.6556 14.5768 4.05484 14.1684L8.00074 10.1288V10.1288Z" />
</svg>
