<svg id="Capa_1" enable-background="new 0 0 512 512" height="512" viewBox="0 0 512 512" width="512" xmlns="http://www.w3.org/2000/svg"><g><g><circle cx="256" cy="256" fill="#f9ef63" r="143.666"/><path d="m296.394 393.91c-12.81 3.75-26.37 5.76-40.4 5.76-79.34 0-143.66-64.33-143.66-143.67s64.32-143.67 143.66-143.67c14.03 0 27.59 2.01 40.4 5.76-59.68 17.45-103.27 72.59-103.27 137.91s43.59 120.46 103.27 137.91z" fill="#f1d333"/><g fill="#f9ef63"><path d="m257.405 75.606h-2.81c-9.909 0-18.126-7.673-18.805-17.559l-2.086-30.409c-.746-10.891 7.888-20.138 18.805-20.138h6.981c10.918 0 19.552 9.247 18.805 20.139l-2.086 30.409c-.678 9.885-8.895 17.558-18.804 17.558z"/><path d="m254.595 436.394h2.81c9.909 0 18.126 7.673 18.805 17.559l2.086 30.409c.747 10.892-7.887 20.139-18.805 20.139h-6.981c-10.918 0-19.552-9.247-18.805-20.139l2.086-30.409c.678-9.886 8.895-17.559 18.804-17.559z"/><path d="m167.02 99.072-2.433 1.405c-8.582 4.955-19.534 2.418-25.065-5.804l-17.011-25.292c-6.093-9.059-3.239-21.384 6.216-26.843l6.046-3.491c9.455-5.459 21.556-1.768 26.354 8.038l13.398 27.378c4.356 8.901 1.076 19.654-7.505 24.609z"/><path d="m344.98 412.928 2.433-1.405c8.582-4.955 19.534-2.418 25.065 5.804l17.011 25.292c6.093 9.059 3.239 21.384-6.216 26.843l-6.046 3.491c-9.455 5.459-21.556 1.768-26.354-8.038l-13.398-27.378c-4.356-8.901-1.076-19.654 7.505-24.609z"/><path d="m100.477 164.587-1.405 2.433c-4.955 8.582-15.708 11.861-24.609 7.506l-27.378-13.398c-9.806-4.799-13.497-16.9-8.038-26.354l3.491-6.046c5.459-9.455 17.784-12.309 26.843-6.216l25.292 17.011c8.222 5.529 10.758 16.482 5.804 25.064z"/><path d="m411.523 347.414 1.405-2.433c4.955-8.582 15.708-11.861 24.609-7.506l27.378 13.398c9.806 4.799 13.497 16.9 8.038 26.354l-3.491 6.046c-5.459 9.455-17.784 12.309-26.843 6.216l-25.292-17.011c-8.222-5.53-10.758-16.483-5.804-25.064z"/><path d="m75.606 254.595v2.81c0 9.909-7.673 18.126-17.559 18.805l-30.409 2.086c-10.891.746-20.138-7.888-20.138-18.805v-6.981c0-10.918 9.247-19.552 20.139-18.805l30.409 2.086c9.885.678 17.558 8.895 17.558 18.804z"/><path d="m436.394 257.405v-2.81c0-9.909 7.673-18.126 17.559-18.805l30.409-2.086c10.892-.747 20.139 7.887 20.139 18.805v6.981c0 10.918-9.247 19.552-20.139 18.805l-30.409-2.086c-9.886-.678-17.559-8.895-17.559-18.804z"/><path d="m99.072 344.98 1.405 2.433c4.955 8.582 2.418 19.534-5.804 25.065l-25.292 17.011c-9.059 6.093-21.384 3.239-26.843-6.216l-3.491-6.046c-5.459-9.455-1.768-21.556 8.038-26.354l27.378-13.398c8.901-4.356 19.654-1.076 24.609 7.505z"/><path d="m412.928 167.02-1.405-2.433c-4.955-8.582-2.418-19.534 5.804-25.065l25.292-17.011c9.059-6.093 21.384-3.239 26.843 6.216l3.491 6.046c5.459 9.455 1.768 21.556-8.038 26.354l-27.378 13.398c-8.901 4.356-19.654 1.076-24.609-7.505z"/><path d="m164.587 411.523 2.433 1.405c8.582 4.955 11.861 15.708 7.506 24.609l-13.398 27.378c-4.799 9.806-16.9 13.497-26.354 8.038l-6.046-3.491c-9.455-5.459-12.309-17.784-6.216-26.843l17.011-25.292c5.529-8.222 16.482-10.758 25.064-5.804z"/><path d="m347.414 100.477-2.433-1.405c-8.582-4.955-11.861-15.708-7.506-24.609l13.398-27.378c4.799-9.806 16.9-13.497 26.354-8.038l6.046 3.491c9.455 5.459 12.309 17.784 6.216 26.843l-17.011 25.292c-5.53 8.222-16.483 10.758-25.064 5.804z"/></g></g><g><path d="m256 407.17c-32.794 0-63.998-10.331-90.239-29.875-3.322-2.475-4.01-7.173-1.535-10.495 2.473-3.323 7.173-4.009 10.494-1.535 23.633 17.602 51.739 26.905 81.28 26.905 75.084 0 136.17-61.085 136.17-136.17s-61.086-136.17-136.17-136.17-136.17 61.086-136.17 136.17c0 33.192 12.073 65.162 33.995 90.019 2.74 3.107 2.442 7.846-.664 10.586s-7.846 2.442-10.586-.664c-24.34-27.599-37.745-63.092-37.745-99.941 0-83.355 67.814-151.17 151.17-151.17s151.17 67.815 151.17 151.17-67.815 151.17-151.17 151.17z"/><g><path d="m257.405 83.106h-2.811c-13.796 0-25.343-10.782-26.286-24.546l-2.086-30.408c-.498-7.257 2.064-14.469 7.028-19.786 4.966-5.317 11.985-8.366 19.26-8.366h6.98c7.274 0 14.294 3.049 19.259 8.366 4.964 5.317 7.526 12.528 7.028 19.786l-2.086 30.409c-.943 13.764-12.49 24.545-26.286 24.545zm-4.895-68.106c-3.18 0-6.125 1.28-8.295 3.604s-3.245 5.35-3.027 8.522l2.086 30.409c.406 5.929 5.379 10.572 11.321 10.572h2.811c5.942 0 10.915-4.644 11.321-10.572l2.086-30.409c.218-3.172-.857-6.198-3.027-8.522s-5.116-3.604-8.296-3.604z"/><path d="m259.49 512h-6.98c-7.274 0-14.294-3.049-19.259-8.366-4.964-5.317-7.526-12.528-7.028-19.786l2.086-30.409c.943-13.764 12.49-24.546 26.286-24.546h2.811c13.796 0 25.343 10.782 26.286 24.546l2.086 30.408c.498 7.257-2.064 14.469-7.028 19.786-4.966 5.318-11.985 8.367-19.26 8.367zm-4.895-68.106c-5.942 0-10.915 4.644-11.321 10.572l-2.086 30.409c-.218 3.172.857 6.198 3.027 8.522s5.115 3.603 8.295 3.603h6.98c3.18 0 6.125-1.28 8.295-3.604s3.245-5.35 3.027-8.522l-2.086-30.409c-.406-5.929-5.379-10.572-11.321-10.572h-2.81z"/><path d="m155.227 110.481c-8.524 0-16.879-4.116-21.929-11.623l-17.011-25.292c-4.06-6.036-5.446-13.562-3.806-20.648 1.642-7.087 6.195-13.237 12.495-16.875l6.047-3.491c6.299-3.637 13.901-4.506 20.859-2.384s12.783 7.086 15.981 13.62l13.397 27.379c6.064 12.392 1.455 27.502-10.492 34.4h.001l-2.433 1.405c-4.111 2.374-8.635 3.509-13.109 3.509zm-11.055-66.468c-1.959 0-3.893.516-5.648 1.529l-6.047 3.491c-2.753 1.589-4.664 4.17-5.382 7.268-.717 3.097-.135 6.256 1.64 8.894l17.011 25.292c3.315 4.93 9.943 6.464 15.092 3.494l2.432-1.404h.001c5.146-2.971 7.131-9.479 4.52-14.817l-13.397-27.378c-1.398-2.855-3.843-4.939-6.884-5.866-1.104-.336-2.226-.503-3.338-.503z"/><path d="m367.781 482.971c-2.578 0-5.162-.376-7.664-1.139-6.958-2.122-12.783-7.086-15.981-13.62l-13.397-27.379c-6.064-12.392-1.455-27.502 10.492-34.4h-.001l2.433-1.405c11.95-6.899 27.34-3.334 35.04 8.112l17.011 25.292c4.06 6.036 5.446 13.562 3.806 20.648-1.642 7.087-6.195 13.237-12.495 16.875l-6.047 3.491c-4.036 2.331-8.605 3.525-13.197 3.525zm-10.97-66.464c-1.928 0-3.875.489-5.647 1.512l-2.432 1.404c-.001 0-.001 0-.001 0-5.146 2.971-7.131 9.479-4.52 14.817l13.397 27.378c1.398 2.855 3.843 4.939 6.884 5.866 3.042.928 6.231.562 8.984-1.027l6.047-3.491c2.753-1.589 4.664-4.17 5.382-7.268.717-3.097.135-6.256-1.64-8.894l-17.011-25.292c-2.173-3.232-5.773-5.005-9.443-5.005zm-11.831-3.579h.01z"/><path d="m82.678 183.928c-3.886 0-7.819-.859-11.512-2.666l-27.377-13.398c-6.533-3.197-11.498-9.021-13.62-15.979-2.123-6.958-1.254-14.562 2.383-20.862l3.491-6.047c3.638-6.299 9.788-10.854 16.874-12.495 7.091-1.642 14.613-.253 20.649 3.806l25.292 17.011c11.447 7.699 15.011 23.089 8.114 35.037l-1.404 2.433c-4.843 8.389-13.735 13.16-22.89 13.16zm-23.781-57.132c-.862 0-1.731.099-2.596.299-3.098.717-5.679 2.628-7.269 5.382l-3.491 6.046c-1.589 2.753-1.954 5.944-1.026 8.985s3.012 5.485 5.867 6.882l27.377 13.398c5.339 2.612 11.847.626 14.817-4.52l1.403-2.432c.001 0 .001-.001.001-.001 2.972-5.146 1.437-11.774-3.494-15.091l-25.292-17.011c-1.9-1.277-4.073-1.937-6.297-1.937z"/><path d="m453.168 400.192c-5.205 0-10.36-1.539-14.734-4.48l-25.292-17.011c-11.447-7.699-15.011-23.089-8.114-35.037l1.404-2.433c6.898-11.949 22.009-16.558 34.402-10.494l27.377 13.398c6.533 3.197 11.498 9.021 13.62 15.979 2.123 6.958 1.254 14.562-2.383 20.862l-3.491 6.047c-3.638 6.299-9.788 10.854-16.874 12.495-1.952.452-3.937.674-5.915.674zm-23.886-57.129c-3.944 0-7.773 2.055-9.859 5.667l-1.403 2.432c-.001 0-.001.001-.001.001-2.972 5.146-1.437 11.774 3.494 15.091l25.292 17.011c2.639 1.775 5.801 2.356 8.894 1.639 3.098-.717 5.679-2.628 7.269-5.382l3.491-6.046c1.589-2.753 1.954-5.944 1.026-8.985s-3.012-5.485-5.867-6.882l-27.377-13.398c-1.591-.778-3.286-1.148-4.959-1.148zm-17.759 4.351h.01z"/><path d="m26.367 285.839c-6.644 0-13.12-2.532-18.001-7.09-5.316-4.964-8.366-11.984-8.366-19.258v-6.981c0-7.274 3.05-14.294 8.366-19.258 5.315-4.965 12.51-7.533 19.786-7.029l30.409 2.086c13.764.944 24.545 12.491 24.545 26.287v2.81c0 13.796-10.781 25.343-24.545 26.287l-30.409 2.086c-.595.04-1.191.06-1.785.06zm-.044-44.679c-2.877 0-5.593 1.069-7.72 3.055-2.324 2.17-3.604 5.116-3.604 8.295v6.981c0 3.179 1.279 6.125 3.604 8.295s5.345 3.249 8.522 3.027l30.408-2.086c5.929-.407 10.572-5.38 10.572-11.322v-2.81c0-5.942-4.644-10.916-10.572-11.322l-30.409-2.086c-.268-.019-.535-.027-.801-.027z"/><path d="m485.633 285.839c-.594 0-1.188-.02-1.785-.061l-30.409-2.086c-13.764-.944-24.545-12.491-24.545-26.287v-2.81c0-13.796 10.781-25.343 24.545-26.287l30.409-2.086c7.257-.504 14.469 2.063 19.786 7.029 5.316 4.964 8.366 11.984 8.366 19.258v6.981c0 7.274-3.05 14.294-8.366 19.258-4.88 4.558-11.358 7.091-18.001 7.091zm.044-44.679c-.267 0-.533.009-.803.027l-30.408 2.086c-5.929.407-10.572 5.38-10.572 11.322v2.81c0 5.942 4.644 10.916 10.572 11.322l30.409 2.086c3.179.218 6.199-.858 8.521-3.027 2.324-2.17 3.604-5.116 3.604-8.295v-6.981c0-3.179-1.279-6.125-3.604-8.295-2.126-1.986-4.842-3.055-7.719-3.055z"/><path d="m58.832 400.192c-1.979 0-3.963-.222-5.915-.674-7.086-1.641-13.236-6.195-16.874-12.495l-3.491-6.045c-3.637-6.301-4.506-13.905-2.383-20.863 2.122-6.958 7.087-12.782 13.62-15.979l27.377-13.397c12.393-6.064 27.504-1.455 34.401 10.492 0 0 0 0 .001.001l1.404 2.433c6.897 11.947 3.334 27.337-8.114 35.037l-25.292 17.01c-4.373 2.942-9.53 4.48-14.734 4.48zm23.886-57.129c-1.674 0-3.368.37-4.958 1.148l-27.377 13.397c-2.855 1.397-4.939 3.842-5.867 6.882-.928 3.042-.563 6.232 1.026 8.986l3.491 6.045c1.59 2.754 4.171 4.665 7.269 5.382 3.093.716 6.255.136 8.894-1.639l25.292-17.011c4.931-3.316 6.466-9.945 3.494-15.091l-1.405-2.435c-2.087-3.61-5.916-5.664-9.859-5.664z"/><path d="m429.322 183.928c-9.157 0-18.047-4.77-22.89-13.159 0 0 0 0-.001-.001l-1.404-2.433c-6.897-11.947-3.334-27.337 8.114-35.037l25.292-17.01c6.035-4.061 13.562-5.447 20.649-3.806 7.086 1.641 13.236 6.195 16.874 12.495l3.491 6.045c3.637 6.301 4.506 13.905 2.383 20.863-2.122 6.958-7.087 12.782-13.62 15.979l-27.377 13.397c-3.69 1.807-7.626 2.667-11.511 2.667zm-9.898-20.657c2.972 5.146 9.481 7.13 14.816 4.518l27.377-13.397c2.855-1.397 4.939-3.842 5.867-6.882.928-3.042.563-6.232-1.026-8.986l-3.491-6.045c-1.59-2.754-4.171-4.665-7.269-5.382-3.094-.716-6.255-.136-8.894 1.639l-25.292 17.011c-4.931 3.316-6.466 9.945-3.494 15.091z"/><path d="m144.219 482.971c-4.592 0-9.161-1.194-13.195-3.523l-6.047-3.49c-6.3-3.638-10.854-9.789-12.495-16.875-1.641-7.087-.254-14.613 3.806-20.648l17.011-25.292c7.7-11.449 23.092-15.011 35.039-8.113h.001l2.433 1.405c11.946 6.897 16.556 22.007 10.491 34.399l-13.397 27.378c-3.198 6.535-9.023 11.5-15.981 13.621-2.504.762-5.089 1.138-7.666 1.138zm10.97-66.464c-3.672 0-7.27 1.772-9.444 5.006l-17.011 25.292c-1.774 2.638-2.356 5.796-1.64 8.894.718 3.098 2.629 5.679 5.382 7.269l6.047 3.49c2.752 1.59 5.941 1.954 8.984 1.027 3.041-.927 5.485-3.011 6.884-5.867l13.397-27.377c2.611-5.338.627-11.846-4.52-14.817l-2.434-1.405c-1.769-1.023-3.718-1.512-5.645-1.512z"/><path d="m356.768 110.48c-4.472 0-8.99-1.132-13.103-3.502l-2.449-1.421c-11.931-6.883-16.543-21.993-10.484-34.39l13.402-27.375c3.196-6.533 9.021-11.498 15.977-13.621 6.962-2.124 14.565-1.254 20.869 2.383l6.043 3.493c6.284 3.624 10.698 9.505 12.422 16.558 1.725 7.058.523 14.314-3.383 20.433-2.23 3.491-6.868 4.512-10.357 2.285-3.491-2.229-4.515-6.867-2.285-10.358 1.681-2.632 2.197-5.757 1.454-8.798-.742-3.035-2.642-5.567-5.35-7.128l-6.046-3.494c-2.752-1.589-5.946-1.954-8.989-1.026-3.04.928-5.483 3.012-6.881 5.869l-13.401 27.372c-2.608 5.337-.623 11.847 4.522 14.815l2.446 1.42c5.135 2.96 11.769 1.425 15.08-3.506l.82-1.226c2.304-3.443 6.963-4.367 10.403-2.065 3.443 2.303 4.368 6.96 2.065 10.404l-.829 1.24c-5.052 7.516-13.415 11.638-21.946 11.638z"/></g></g></g></svg>