<svg viewBox="0 0 16 16" fill="none" xmlns="http://www.w3.org/2000/svg"><path d="M4.06 12.667h8l-.867.86a.67.67 0 00.947.946l2-2a.665.665 0 000-.946l-2-2a.667.667 0 00-1.093.217.667.667 0 00.146.73l.867.86h-8A1.04 1.04 0 013 10.313V8.666a.667.667 0 00-1.333 0v1.646a2.374 2.374 0 002.393 2.354zm-.2-6.194a.67.67 0 00.947-.946l-.867-.86h8A1.04 1.04 0 0113 5.687v1.646a.666.666 0 101.333 0V5.687a2.375 2.375 0 00-2.393-2.354h-8l.867-.86a.667.667 0 00-.217-1.092.667.667 0 00-.73.146l-2 2a.667.667 0 000 .946l2 2z"/></svg>