<svg id="Capa_1" enable-background="new 0 0 512 512" height="512" viewBox="0 0 512 512" width="512" xmlns="http://www.w3.org/2000/svg"><g><g><path d="m504.498 256c0 137.239-111.259 248.498-248.498 248.499-136.906 0-248.5-111.594-248.5-248.5 0-137.239 111.26-248.498 248.499-248.498h.27c6.288.007 8.285 8.502 2.681 11.354-56.531 28.774-95.261 87.513-95.261 155.303-.001 95.966 78.184 174.151 174.15 174.151 67.79 0 126.53-38.73 155.304-95.261 2.852-5.604 11.347-3.607 11.354 2.681 0 .091.001.181.001.271z" fill="#f9ef63"/><path d="m342.008 439.799c36.64 0 71.43-7.93 102.74-22.17-45.57 53.18-113.219 86.87-188.749 86.87-136.909 0-248.499-111.59-248.499-248.499 0-100.59 59.78-187.229 145.749-226.329-37.25 43.46-59.74 99.919-59.74 161.629.001 136.91 111.59 248.499 248.499 248.499z" fill="#f1d333"/><g><g><path d="m494.098 131.061-44.79 9.81c-5.04 1.11-8.98 5.05-10.09 10.1l-9.81 44.79c-1.92 8.78-10.56 11.99-17.4 9.66-3.97-1.35-7.33-4.58-8.44-9.66l-9.81-44.79c-1.11-5.05-5.05-8.99-10.1-10.1l-44.79-9.81c-13.86-3.03-13.86-22.8 0-25.84l44.79-9.81c5.05-1.11 8.99-5.05 10.1-10.09l9.81-44.79c1.56-7.13 7.53-10.59 13.39-10.39 5.54.18 10.97 3.65 12.45 10.39l9.81 44.79c1.11 5.04 5.05 8.98 10.09 10.09l44.79 9.81c13.869 3.04 13.869 22.81 0 25.84z" fill="#f9ef63"/><path d="m415.018 205.42c.47.49.97.73 1.46.73-1.52 0-3.03-.24-4.47-.73-3.97-1.35-7.33-4.58-8.44-9.66l-9.81-44.79c-1.11-5.05-5.05-8.99-10.1-10.1l-44.79-9.81c-13.86-3.03-13.86-22.8 0-25.84l44.79-9.81c5.05-1.11 8.99-5.05 10.1-10.09l9.81-44.79c1.52-6.94 7.21-10.4 12.91-10.4-1.87 0-3.72 3.46-4.22 10.4l-3.21 44.79c-.36 5.04-1.65 8.98-3.31 10.09l-14.65 9.81c-8.496 7.006-13.172 16.991 0 25.84l14.65 9.81c1.66 1.11 2.95 5.05 3.31 10.1l3.21 44.79c.36 5.08 1.46 8.31 2.76 9.66z" fill="#f1d333"/></g></g><g><g><path d="m342.261 199.364-33.78 7.399c-3.801.837-6.773 3.809-7.61 7.617l-7.399 33.781c-1.448 6.622-7.964 9.043-13.123 7.286-2.994-1.018-5.528-3.454-6.365-7.286l-7.399-33.781c-.837-3.809-3.809-6.78-7.617-7.617l-33.78-7.399c-10.453-2.285-10.453-17.196 0-19.488l33.78-7.399c3.809-.837 6.78-3.809 7.617-7.61l7.399-33.781c1.176-5.377 5.679-7.987 10.099-7.836 4.178.136 8.274 2.753 9.39 7.836l7.399 33.781c.837 3.801 3.809 6.773 7.61 7.61l33.78 7.399c10.46 2.292 10.46 17.203-.001 19.488z" fill="#f9ef63"/><path d="m282.62 255.446c.354.37.731.551 1.101.551-1.146 0-2.285-.181-3.371-.551-2.994-1.018-5.528-3.454-6.365-7.285l-7.399-33.781c-.837-3.809-3.809-6.78-7.617-7.617l-33.781-7.399c-10.453-2.285-10.453-17.196 0-19.489l33.781-7.399c3.809-.837 6.78-3.809 7.617-7.61l7.399-33.781c1.146-5.234 5.438-7.844 9.737-7.844-1.41 0-2.806 2.609-3.183 7.844l-2.421 33.781c-.271 3.801-1.244 6.773-2.496 7.61l-11.049 7.399c-6.408 5.284-9.934 12.815 0 19.489l11.049 7.399c1.252.837 2.225 3.809 2.496 7.617l2.421 33.781c.27 3.831 1.1 6.267 2.081 7.285z" fill="#f1d333"/></g></g><path d="m429.408 65.531-1.75-1.46c.56.37 1.14.85 1.75 1.46z" fill="#f9ef63"/></g><g><path d="m256 512c-49.957 0-98.415-14.492-140.136-41.91-40.642-26.709-72.765-64.132-92.896-108.225-1.72-3.768-.06-8.217 3.708-9.938 3.766-1.72 8.217-.061 9.938 3.708 18.957 41.521 49.209 76.764 87.489 101.92 39.266 25.805 84.876 39.445 131.897 39.445 64.372 0 124.893-25.069 170.412-70.588 44.124-44.125 69.032-102.343 70.518-164.504-14.935 27.032-36.552 49.879-62.828 66.328-28.815 18.039-62.103 27.574-96.262 27.574-100.162 0-181.65-81.488-181.65-181.65 0-34.159 9.535-67.446 27.574-96.262 16.448-26.274 39.294-47.891 66.328-62.827-62.161 1.485-120.379 26.393-164.504 70.518-45.519 45.519-70.588 106.039-70.588 170.411 0 24.799 3.784 49.278 11.248 72.758 1.255 3.948-.928 8.165-4.875 9.419-3.949 1.255-8.165-.928-9.419-4.875-7.933-24.951-11.954-50.959-11.954-77.302 0-68.379 26.629-132.666 74.981-181.018 48.353-48.353 112.64-74.982 181.019-74.982h.27c6.352.01 11.606 4.164 13.085 10.336 1.486 6.198-1.324 12.307-6.994 15.203-27.004 13.743-49.783 34.599-65.883 60.318-16.544 26.427-25.289 56.962-25.289 88.303 0 91.891 74.759 166.65 166.65 166.65 31.341 0 61.875-8.745 88.303-25.288 25.719-16.1 46.574-38.879 60.313-65.873 2.896-5.679 9.008-8.492 15.201-7.01 6.177 1.479 10.334 6.735 10.344 13.08v.281c0 68.379-26.629 132.666-74.981 181.018-48.353 48.353-112.64 74.982-181.019 74.982z"/><g><path d="m416.485 213.655c-9.977 0-18.114-6.546-20.252-16.288l-9.81-44.792c-.476-2.184-2.191-3.9-4.374-4.379l-44.784-9.809c-9.739-2.129-16.287-10.261-16.291-20.235-.003-9.979 6.543-18.119 16.289-20.257l44.792-9.811c2.177-.479 3.893-2.191 4.367-4.362l9.811-44.796c2.137-9.749 10.275-16.298 20.252-16.298 9.976 0 18.114 6.549 20.251 16.297l9.81 44.791c.476 2.176 2.191 3.89 4.374 4.369l44.784 9.809c9.748 2.138 16.294 10.279 16.291 20.258-.004 9.974-6.552 18.106-16.294 20.236l-19.627 4.299c-4.042.887-8.044-1.676-8.931-5.721-.887-4.046 1.675-8.045 5.722-8.931l19.63-4.3c4.174-.912 4.499-4.508 4.5-5.588 0-1.082-.323-4.684-4.502-5.6l-44.788-9.81c-7.889-1.734-14.093-7.941-15.813-15.816l-9.809-44.786c-.917-4.182-4.518-4.507-5.599-4.507-1.082 0-4.683.325-5.6 4.508l-9.81 44.789c-1.717 7.869-7.922 14.078-15.806 15.811l-44.796 9.811c-4.177.916-4.5 4.518-4.5 5.6.001 1.08.326 4.675 4.497 5.587l44.793 9.811c7.893 1.735 14.098 7.948 15.813 15.831l9.808 44.781c.916 4.175 4.518 4.5 5.6 4.5 1.081 0 4.683-.325 5.599-4.502l9.81-44.788c1.214-5.576 4.723-10.45 9.625-13.363 3.561-2.115 8.164-.944 10.278 2.617 2.116 3.561.944 8.163-2.616 10.279-1.339.795-2.299 2.132-2.633 3.667l-9.812 44.8c-2.134 9.742-10.273 16.288-20.249 16.288z"/></g><g><path d="m283.727 263.499c-8.411 0-15.271-5.521-17.071-13.737l-7.399-33.781c-.206-.941-.948-1.683-1.891-1.889l-33.78-7.399c-8.216-1.8-13.737-8.66-13.737-17.072 0-8.411 5.521-15.272 13.737-17.072l33.781-7.4c.941-.206 1.684-.948 1.89-1.89l7.399-33.78c1.8-8.217 8.66-13.737 17.071-13.737s15.271 5.521 17.071 13.737l7.4 33.781c.206.942.947 1.683 1.889 1.889l33.781 7.399c8.217 1.8 13.737 8.661 13.737 17.072s-5.521 15.272-13.737 17.072l-33.781 7.4c-.941.206-1.683.947-1.889 1.888l-7.4 33.782c-1.8 8.217-8.66 13.737-17.071 13.737zm0-132.757c-1.322 0-2.136.655-2.419 1.947l-7.399 33.781c-1.456 6.645-6.689 11.877-13.333 13.333l-33.78 7.399c-1.292.283-1.947 1.097-1.947 2.419 0 1.323.655 2.136 1.947 2.419l33.78 7.399c6.644 1.456 11.877 6.688 13.333 13.332l7.399 33.782c.283 1.292 1.097 1.947 2.419 1.947s2.136-.655 2.419-1.947l7.4-33.781c1.454-6.643 6.688-11.876 13.331-13.332l33.782-7.4c1.291-.283 1.946-1.097 1.946-2.419s-.655-2.136-1.946-2.419l-33.781-7.399c-6.645-1.455-11.878-6.689-13.332-13.333l-7.4-33.78c-.284-1.293-1.097-1.948-2.419-1.948z"/></g></g></g></svg>